<?xml version="1.0" standalone="no"?>
<!DOCTYPE svg PUBLIC "-//W3C//DTD SVG 20010904//EN"
 "http://www.w3.org/TR/2001/REC-SVG-20010904/DTD/svg10.dtd">
<svg version="1.0" xmlns="http://www.w3.org/2000/svg"
 width="348.000000pt" height="348.000000pt" viewBox="0 0 348.000000 348.000000"
 preserveAspectRatio="xMidYMid meet">

<g transform="translate(0.000000,348.000000) scale(0.100000,-0.100000)"
fill="#000000" stroke="none">
<path d="M1322 1980 c-35 -4 -68 -12 -75 -19 -15 -15 -10 -81 9 -102 17 -19
59 -17 202 11 102 20 142 40 142 70 0 48 -93 61 -278 40z"/>
<path d="M1941 1976 c-7 -8 -11 -27 -9 -42 4 -32 15 -36 158 -62 119 -21 148
-19 161 14 13 35 11 78 -3 92 -19 19 -292 17 -307 -2z"/>
<path d="M861 1763 c-1 -18 -52 -74 -75 -83 -12 -4 -29 -4 -38 2 -25 12 -22
-4 2 -20 20 -12 20 -14 4 -41 -17 -29 -44 -37 -44 -13 0 12 -3 12 -15 2 -13
-11 -14 -10 -8 6 6 16 5 17 -9 6 -9 -7 -21 -32 -27 -57 -6 -25 -21 -51 -33
-59 -26 -18 -20 -20 15 -7 16 6 28 21 32 40 6 30 8 31 45 25 38 -6 39 -5 77
52 21 33 41 61 44 64 14 11 40 72 35 83 -3 9 -5 9 -5 0z"/>
<path d="M519 1708 c-16 -29 -29 -173 -19 -207 5 -16 8 9 9 67 0 55 7 107 16
127 16 39 12 47 -6 13z"/>
<path d="M690 1721 c0 -6 4 -13 10 -16 6 -3 7 1 4 9 -7 18 -14 21 -14 7z"/>
<path d="M660 1683 c-1 -31 -15 -54 -45 -71 -19 -11 -18 -11 7 -12 17 0 33 8
42 22 18 25 22 88 6 88 -5 0 -10 -12 -10 -27z"/>
<path d="M2105 1619 c-16 -6 -81 -31 -142 -55 -62 -24 -125 -44 -139 -44 -15
0 -86 21 -158 46 -129 45 -133 46 -231 41 -73 -3 -128 -13 -205 -36 -58 -17
-127 -31 -154 -31 -45 0 -48 1 -43 23 6 21 6 21 -8 3 -8 -11 -15 -23 -15 -28
0 -16 -47 -18 -82 -3 -26 10 -40 23 -44 42 l-7 26 -13 -26 c-16 -29 -51 -44
-67 -28 -17 17 -25 13 -20 -11 4 -21 -31 -118 -42 -118 -3 0 -2 30 1 66 3 45
2 64 -5 59 -6 -3 -11 -16 -11 -29 0 -13 -5 -38 -12 -57 l-11 -33 -16 37 -16
38 0 -98 c-1 -107 -8 -160 -24 -176 -6 -6 -11 -17 -11 -24 0 -18 -70 -84 -81
-77 -5 3 -9 1 -9 -3 0 -12 63 -34 71 -25 10 12 66 155 73 188 4 17 22 46 41
64 25 24 35 43 35 65 0 64 42 88 119 66 36 -10 36 -26 2 -62 -32 -33 -36 -45
-25 -73 9 -24 25 -19 19 7 -3 12 -1 28 4 36 8 12 12 12 26 -2 23 -23 24 -22
18 21 -6 44 14 72 51 72 33 0 51 -26 48 -69 -5 -56 -12 -71 -43 -90 -16 -10
-42 -36 -58 -58 -30 -41 -38 -45 -171 -88 -59 -18 -120 -51 -120 -65 0 -4 28
7 63 25 34 19 85 39 112 46 71 17 82 24 155 101 54 57 66 76 70 111 3 28 10
43 21 45 28 5 46 -24 64 -102 11 -52 28 -94 56 -135 45 -68 86 -102 167 -138
77 -35 204 -38 272 -6 62 29 145 116 183 192 l31 64 16 -44 c17 -51 51 -109
62 -109 4 0 25 -15 45 -33 53 -47 91 -59 186 -61 117 -1 173 20 252 98 72 70
96 113 120 211 19 80 22 84 88 119 32 18 47 23 48 14 0 -7 2 -20 3 -28 2 -8 6
-41 10 -72 6 -49 11 -58 27 -58 29 0 33 22 15 84 -9 30 -16 74 -16 99 0 65
-14 97 -43 97 -13 0 -32 -9 -42 -20 -35 -39 -80 -42 -190 -14 -112 28 -254 39
-300 23z"/>
<path d="M485 1399 c-37 -82 -55 -144 -55 -185 0 -18 -4 -36 -10 -39 -13 -8
-13 -25 -1 -25 5 0 15 26 21 58 7 31 27 97 46 146 41 106 40 136 -1 45z"/>
<path d="M391 1134 c0 -12 7 -28 17 -35 15 -12 16 -12 6 1 -7 8 -14 24 -17 35
-4 19 -5 19 -6 -1z"/>
<path d="M2355 1059 c-39 -17 -104 -36 -145 -44 -41 -8 -100 -22 -130 -31 -42
-12 -119 -17 -335 -21 -273 -6 -368 0 -525 29 -30 5 -68 11 -85 13 -16 2 -47
6 -69 10 -28 6 -40 4 -47 -6 -14 -23 -10 -30 10 -19 29 15 48 12 68 -9 21 -22
129 -104 199 -151 27 -18 60 -43 74 -55 14 -13 36 -26 50 -30 25 -8 25 -7 7
13 -11 11 -24 19 -30 17 -7 -3 -30 11 -52 30 l-40 35 45 0 c26 0 50 -4 55 -9
6 -6 25 -6 45 -1 31 7 32 8 8 9 -15 1 -29 5 -32 10 -3 4 -29 11 -58 13 -39 4
-57 12 -74 31 -12 14 -25 23 -29 19 -4 -4 -5 0 -3 8 3 8 1 23 -4 34 -9 16 -6
18 29 12 70 -10 197 -26 243 -29 25 -2 44 -8 43 -14 -1 -6 4 -17 12 -23 13
-10 15 -8 15 11 0 23 3 24 52 20 29 -2 55 -6 58 -10 3 -3 17 -14 33 -24 23
-15 26 -21 17 -37 -6 -11 -21 -20 -33 -21 -15 -1 -10 -4 13 -9 19 -5 37 -7 40
-5 3 1 52 6 110 9 58 4 123 11 144 16 22 5 43 7 47 4 4 -2 10 0 14 6 3 5 16
10 28 10 13 0 39 9 60 19 37 19 50 14 22 -9 -8 -7 -15 -18 -15 -24 0 -6 11 3
24 19 56 70 159 169 203 193 10 6 16 13 13 16 -3 2 -37 -9 -75 -25z m-1119
-101 c3 -11 1 -25 -5 -31 -8 -8 -11 -6 -11 7 0 9 -4 15 -8 12 -4 -2 -13 3 -19
13 -10 16 -8 19 12 19 16 0 27 -8 31 -20z m1024 8 c0 -2 -7 -7 -16 -10 -8 -3
-12 -2 -9 4 6 10 25 14 25 6z m-80 -25 c-5 -11 -20 -27 -32 -35 -19 -14 -23
-14 -30 -2 -13 22 1 44 30 49 15 2 31 5 35 6 4 0 3 -8 -3 -18z m-84 -30 c2
-28 -45 -51 -106 -51 -37 0 -40 2 -40 28 0 51 16 60 93 52 46 -4 52 -8 53 -29z
m-164 1 c5 -5 8 -20 6 -33 -2 -20 -11 -25 -55 -33 -28 -5 -63 -6 -77 -2 -23 6
-26 12 -26 47 l0 41 71 -5 c39 -3 76 -10 81 -15z"/>
<path d="M614 1070 c-5 -5 -27 -14 -49 -19 l-40 -9 48 -1 c34 -1 49 3 54 14 7
20 0 28 -13 15z"/>
<path d="M2902 989 c-9 -24 -18 -123 -26 -294 -4 -81 -7 -91 -30 -108 -43 -31
-61 -180 -24 -203 7 -5 8 -3 4 5 -13 21 -8 118 9 153 8 18 13 25 11 16 -3 -10
-1 -20 3 -23 8 -4 18 15 35 69 4 10 9 84 12 163 2 79 9 165 13 191 10 52 6 68
-7 31z"/>
<path d="M3042 848 c-1 -15 -13 -35 -28 -47 -29 -23 -10 -29 19 -7 13 10 17
24 14 48 -3 27 -4 28 -5 6z"/>
<path d="M1572 841 c-11 -7 -11 -9 2 -14 9 -4 23 -4 32 0 13 5 13 7 2 14 -7 5
-15 9 -18 9 -3 0 -11 -4 -18 -9z"/>
<path d="M2092 793 c1 -10 -2 -25 -7 -33 -7 -13 -6 -13 7 -2 9 7 14 21 11 32
-7 25 -15 26 -11 3z"/>
<path d="M1457 729 c7 -7 15 -10 18 -7 3 3 -2 9 -12 12 -14 6 -15 5 -6 -5z"/>
<path d="M1568 683 c7 -3 16 -2 19 1 4 3 -2 6 -13 5 -11 0 -14 -3 -6 -6z"/>
<path d="M1915 680 c-13 -6 -15 -9 -5 -9 8 0 22 4 30 9 18 12 2 12 -25 0z"/>
<path d="M2952 677 c-18 -21 -29 -90 -21 -121 9 -32 -15 -75 -42 -76 -19 0
-39 -41 -39 -81 0 -17 11 -47 25 -67 14 -20 25 -48 25 -62 1 -30 16 -52 48
-69 33 -18 203 -27 229 -13 26 14 43 60 32 87 -6 15 -8 12 -8 -17 -2 -65 -55
-81 -196 -58 -69 11 -89 30 -80 75 11 52 15 63 29 68 26 10 227 -9 236 -23 6
-10 9 -10 16 1 5 8 23 22 39 31 18 10 31 26 32 40 3 23 3 23 -7 1 -15 -36 -42
-43 -152 -40 -85 2 -111 6 -152 26 l-48 24 6 41 c4 23 13 47 20 54 15 16 93
19 218 9 98 -7 106 -3 114 60 4 35 3 36 -6 12 -15 -36 -35 -41 -177 -44 -95
-2 -126 1 -135 12 -8 10 -8 17 0 25 7 7 12 23 12 38 0 14 7 37 14 53 14 25 13
27 -3 27 -10 0 -23 -6 -29 -13z m-12 -311 c0 -2 -11 -13 -24 -25 -23 -22 -23
-22 -29 -2 -3 12 -2 19 3 16 4 -3 10 2 14 10 4 11 36 12 36 1z"/>
<path d="M1600 676 c0 -2 7 -7 16 -10 8 -3 12 -2 9 4 -6 10 -25 14 -25 6z"/>
<path d="M1745 660 c3 -5 16 -10 28 -10 18 0 19 2 7 10 -20 13 -43 13 -35 0z"/>
<path d="M2832 475 c0 -16 2 -22 5 -12 2 9 2 23 0 30 -3 6 -5 -1 -5 -18z"/>
<path d="M2957 466 c-3 -8 0 -22 7 -32 11 -15 12 -13 8 14 -5 36 -7 38 -15 18z"/>
</g>
</svg>
